{"title":"London.Has.Fallen.2016.HD-TS.XVID.AC3.HQ.Hive-CM8","uid":13923785,"size":1431930880,"categoryP":"video","categoryS":"movies","magnet":"?xt=urn:btih:02cac86bc908710877dcf3d2e1ecb4a323aba670&amp;dn=+London.Has.Fallen.2016.HD-TS.XVID.AC3.HQ.Hive-CM8&amp;tr=udp%3A%2F%2Ftracker.leechers-paradise.org%3A6969&amp;tr=udp%3A%2F%2Fzer0day.ch%3A1337&amp;tr=udp%3A%2F%2Fopen.demonii.com%3A1337&amp;tr=udp%3A%2F%2Ftracker.coppersurfer.tk%3A6969&amp;tr=udp%3A%2F%2Fexodus.desync.com%3A6969","seeders":4,"leechers":7,"uploader":"makintos13","files":1,"time":1458360766,"description":"screens:\r\n \nhttp://imgmak.com/Kqe\r\n \nhttp://imgmak.com/Kqg\r\n \nhttp://imgmak.com/Kqo\r\n\r\n:::::::::::\r\n\r\nLondon.Has.Fallen.2016.HD-TS.XVID.AC3.HQ.Hive-CM8\r\n\r\nThx Hive\r\n\r\nCM8 Doing It Right The First Time\r\n\r\nSources:\r\n\r\nVideo: 1080P HDCAM Incoming big thx\r\nAudio: Sweet Line Big Thx to Cadance\r\n\r\nNotes:\r\n\r\nGot this great cam, quality was nice\r\nHad only slight flicker, nothing cropped, no movements, all bright, no heads in the view\r\nAnother perfect release, best possible Video and best possible Line combined for this blockbuster\r\nOne good release is the way to go, patience\r\nthx for everyone involved\r\n\r\nEncode:\r\n\r\nVideo was already nice, fixed rgb ar and perspective, and made darker scenes brighter\r\n\r\nAudio was a nice line, sounds perfect,lipsynced it to my video\r\n\r\nfull video nothing is missing\r\n\r\nwont get better than this till retail\r\nenjoy\r\n\r\nVideo: 720x368 @bitrate 1800 2pass\r\nAudio: Line AC3 2.0 Stereo\r\nSample: yes included \nhttp://www.imdb.com/title/tt3300542/\r\n\r\nGeneral\r\nComplete name: London.Has.Fallen.2016.HD-TS.XVID.AC3.HQ.Hive-CM8.avi\r\nFormat: AVI\r\nFormat/Info: Audio Video Interleave\r\nFile size: 1.33 GiB\r\nDuration: 1h 32mn\r\nOverall bit rate: 2 067 Kbps\r\nWriting application: Nandub v1.0rc2\r\nWriting library: Nandub build 1853/release\r\n\r\nVideo\r\nID: 0\r\nFormat: MPEG-4 Visual\r\nFormat profile: Advanced   \r\nFormat settings, BVOP: 2\r\nFormat settings, QPel: Yes\r\nFormat settings, GMC: No warppoints\r\nFormat settings, Matrix: Default (H.263)\r\nMuxing mode: Packed bitstream\r\nCodec ID: XVID\r\nCodec ID/Hint: XviD\r\nDuration: 1h 32mn\r\nBit rate: 1 800 Kbps\r\nWidth: 720 pixels\r\nHeight: 368 pixels\r\nDisplay aspect ratio: 1.957\r\nFrame rate: 29.970 fps\r\nColor space: YUV\r\nChroma subsampling: 4:2:0\r\nBit depth: 8 bits\r\nScan type: Progressive\r\nCompression mode: Lossy\r\nBits/(Pixel*Frame): 0.227\r\nStream size: 1.16 GiB (87%)\r\nWriting library: XviD 1.2.1 (UTC 2008-12-04)\r\n\r\nAudio\r\nID: 1\r\nFormat: AC-3\r\nFormat/Info: Audio Coding 3\r\nMode extension: CM (complete main)\r\nFormat settings, Endianness: Big\r\nCodec ID: 2000\r\nDuration: 1h 32mn\r\nBit rate mode: Constant\r\nBit rate: 256 Kbps\r\nChannel(s): 2 channels\r\nChannel positions: Front: L R\r\nSampling rate: 48.0 KHz\r\nBit depth: 16 bits\r\nCompression mode: Lossy\r\nStream size: 169 MiB (12%)\r\nAlignment: Split accross interleaves\r\nInterleave, duration: 33 ms (1.00 video frame)\r\nInterleave, preload duration: 500 ms","torrent":{"xt":"urn:btih:02cac86bc908710877dcf3d2e1ecb4a323aba670","amp;dn":"+London.Has.Fallen.2016.HD-TS.XVID.AC3.HQ.Hive-CM8","amp;tr":["udp%3A%2F%2Ftracker.leechers-paradise.org%3A6969","udp%3A%2F%2Fzer0day.ch%3A1337","udp%3A%2F%2Fopen.demonii.com%3A1337","udp%3A%2F%2Ftracker.coppersurfer.tk%3A6969","udp%3A%2F%2Fexodus.desync.com%3A6969"],"infoHash":"02cac86bc908710877dcf3d2e1ecb4a323aba670","infoHashBuffer":{"type":"Buffer","data":[2,202,200,107,201,8,113,8,119,220,243,210,225,236,180,163,35,171,166,112]},"announce":[],"urlList":[]}}